<svg width="108" height="44" viewBox="0 0 108 44" fill="none" xmlns="http://www.w3.org/2000/svg">
<rect width="108" height="44" rx="8" fill="#F7F9FC"/>
<path opacity="0.2" d="M41.0547 17.3202L39 19.3749L34.625 14.9999L36.6797 12.9452C36.7378 12.8862 36.8072 12.8393 36.8836 12.8073C36.9601 12.7753 37.0421 12.7588 37.125 12.7588C37.2079 12.7588 37.2899 12.7753 37.3664 12.8073C37.4428 12.8393 37.5122 12.8862 37.5703 12.9452L41.0547 16.4296C41.1137 16.4878 41.1606 16.5571 41.1926 16.6335C41.2247 16.71 41.2411 16.792 41.2411 16.8749C41.2411 16.9578 41.2247 17.0399 41.1926 17.1163C41.1606 17.1928 41.1137 17.2621 41.0547 17.3202Z" fill="black"/>
<path d="M41.5 15.9921L38.0078 12.4999C37.8923 12.3832 37.7548 12.2906 37.6033 12.2274C37.4517 12.1641 37.2892 12.1316 37.125 12.1316C36.9608 12.1316 36.7983 12.1641 36.6467 12.2274C36.4952 12.2906 36.3577 12.3832 36.2422 12.4999L26.8672 21.8749C26.7507 21.9905 26.6583 22.128 26.5953 22.2796C26.5322 22.4311 26.4999 22.5936 26.5 22.7577V26.2499C26.5 26.5814 26.6317 26.8994 26.8661 27.1338C27.1005 27.3682 27.4185 27.4999 27.75 27.4999H31.2422C31.4063 27.5 31.5688 27.4677 31.7203 27.4046C31.8719 27.3416 32.0094 27.2492 32.125 27.1327L41.5 17.7577C41.7319 17.5224 41.8619 17.2053 41.8619 16.8749C41.8619 16.5445 41.7319 16.2274 41.5 15.9921ZM31.2422 26.2499H27.75V22.7577L34.625 15.8827L38.1172 19.3749L31.2422 26.2499ZM39 18.4921L35.5078 14.9999L37.125 13.3827L40.6172 16.8749L39 18.4921Z" fill="black"/>
<path d="M55.12 28V16.48H62.4V17.832H56.544V21.44H61.44V22.792H56.544V26.648H62.4V28H55.12ZM67.7151 28.24C66.9098 28.24 66.2191 28.04 65.6431 27.64C65.0671 27.2347 64.6218 26.688 64.3071 26C63.9978 25.312 63.8431 24.536 63.8431 23.672C63.8431 22.808 63.9978 22.032 64.3071 21.344C64.6218 20.656 65.0671 20.1147 65.6431 19.72C66.2191 19.32 66.9071 19.12 67.7071 19.12C68.5231 19.12 69.2085 19.3173 69.7631 19.712C70.3178 20.1067 70.7365 20.648 71.0191 21.336C71.3071 22.024 71.4511 22.8027 71.4511 23.672C71.4511 24.5307 71.3071 25.3067 71.0191 26C70.7365 26.688 70.3178 27.2347 69.7631 27.64C69.2085 28.04 68.5258 28.24 67.7151 28.24ZM67.8911 26.936C68.4725 26.936 68.9498 26.7973 69.3231 26.52C69.6965 26.2373 69.9711 25.8507 70.1471 25.36C70.3285 24.864 70.4191 24.3013 70.4191 23.672C70.4191 23.032 70.3285 22.4693 70.1471 21.984C69.9711 21.4933 69.6991 21.112 69.3311 20.84C68.9631 20.5627 68.4965 20.424 67.9311 20.424C67.3445 20.424 66.8591 20.568 66.4751 20.856C66.0965 21.144 65.8138 21.5333 65.6271 22.024C65.4458 22.5147 65.3551 23.064 65.3551 23.672C65.3551 24.2853 65.4485 24.84 65.6351 25.336C65.8218 25.8267 66.1018 26.216 66.4751 26.504C66.8538 26.792 67.3258 26.936 67.8911 26.936ZM70.4191 28V21.64H70.2591V16.48H71.6911V28H70.4191ZM74.0925 17.832V16.36H75.5165V17.832H74.0925ZM74.0925 28V19.36H75.5165V28H74.0925ZM82.7409 28C82.2289 28.1013 81.7222 28.1413 81.2209 28.12C80.7249 28.104 80.2822 28.0053 79.8929 27.824C79.5035 27.6373 79.2075 27.3493 79.0049 26.96C78.8342 26.6187 78.7409 26.2747 78.7249 25.928C78.7142 25.576 78.7089 25.1787 78.7089 24.736V16.96H80.1329V24.672C80.1329 25.024 80.1355 25.3253 80.1409 25.576C80.1515 25.8267 80.2075 26.0427 80.3089 26.224C80.5009 26.5653 80.8049 26.7653 81.2209 26.824C81.6422 26.8827 82.1489 26.8667 82.7409 26.776V28ZM76.9569 20.536V19.36H82.7409V20.536H76.9569Z" fill="#414042"/>
</svg>
